<svg width="177" height="40" viewBox="0 0 177 40" fill="none" xmlns="http://www.w3.org/2000/svg">
<path d="M26.9003 29.064C26.9003 34.16 23.5229 40 13.8435 40C7.54162 40 2.92446 37.848 0 33.6L3.97345 30.824C6.50852 33.824 8.7416 35.624 13.8197 35.624C20.1772 35.624 22.0368 32.68 22.0368 29.336C22.0368 25.656 20.1772 23.16 12.866 22.024C5.55489 20.888 0.842372 17.336 0.842372 10.536C0.842372 4.928 4.5059 0 13.3985 0C19.5891 0 23.4672 2.096 26.2327 6.4L22.458 9.12C20.3759 6.4 18.1269 4.416 13.2237 4.416C8.71776 4.416 5.68204 6.456 5.68204 10.536C5.68204 15.184 9.17073 16.768 14.8528 17.792C22.3467 19.088 26.9003 21.816 26.9003 29.064ZM35.7372 4.872H47.5622V39.544H52.4019V4.872H64.219V0.456H35.7372V4.872ZM88.1392 0.456L101.649 39.552H96.5231L93.5431 30.6H78.2294L75.2493 39.544H70.1235L83.6333 0.448L88.1392 0.456ZM92.0173 26.176L85.8822 7.816L79.7313 26.176H92.0173ZM137.744 0.456H132.395L124.496 14.96L116.613 0.456H111.265L121.675 19.384L110.081 39.544H115.429L124.488 24.192L133.548 39.544H138.896L127.254 19.376L137.744 0.456ZM176.97 17.848V22.152C176.97 34.784 171.51 40 162.896 40C154.281 40 148.822 34.784 148.822 22.152V17.848C148.806 5.216 154.265 0 162.872 0C171.478 0 176.946 5.216 176.946 17.848H176.97ZM172.13 17.848C172.13 8.16 168.864 4.416 162.904 4.416C156.943 4.416 153.638 8.16 153.638 17.848V22.152C153.638 31.84 156.904 35.576 162.864 35.576C168.824 35.576 172.09 31.84 172.09 22.152L172.13 17.848Z" fill="white"/>
</svg>
